# xmcd
#
# Track frame offsets:
# 150
# 4310
# 17013
# 34402
# 51782
# 73119
# 89127
# 107321
# 115847
# 134921
# 152693
# 164776
# 183881
# 202590
# 224184
#
# Disc length: 3206 seconds
#
#
# Revision: 0
# Processed by: cddbd v1.5.2PL0 Copyright (c) Steve Scherf et al.
# Submitted via: FreeRIP 2.944 
#
DISCID=dc0c840f
DTITLE=JAKE - JAKE GUERREIRA DO AMOR
DYEAR=2006
DGENRE=CATOLICA
TTITLE0=Jake - Jake Chequei (introdução)
TTITLE1=Jake - Po para com pó
TTITLE2=Jake - Pressão
TTITLE3=Jake - Bom é louvar
TTITLE4=Jake - Baile lindo
TTITLE5=Jake - Jave chamma
TTITLE6=Jake - Liberando geral
TTITLE7=Jake - Deus te abraça (oraçao)
TTITLE8=Jake - Contemplar
TTITLE9=Jake - Sapeca
TTITLE10=Jake - Ale Ale
TTITLE11=Jake - Rodopiou
TTITLE12=Jake - Quebra e requebra
TTITLE13=Jake - Amigos pela fé
TTITLE14=Jake - Brilha
EXTD=
EXTT0=
EXTT1=
EXTT2=
EXTT3=
EXTT4=
EXTT5=
EXTT6=
EXTT7=
EXTT8=
EXTT9=
EXTT10=
EXTT11=
EXTT12=
EXTT13=
EXTT14=
PLAYORDER=
